# Blender v2.83.1 OBJ File: ''
# www.blender.org
mtllib Level4.mtl
o Plane_Cube
v -250.028244 1.988978 -233.921478
v 250.028244 1.988902 233.921478
v 250.028244 1.988978 -233.921478
v -250.028244 -1.988978 233.921478
v 250.028244 -1.988978 233.921478
v -250.028244 1.988902 233.921478
v -250.028244 -1.988902 -233.921478
v 250.028244 -1.988902 -233.921478
vt 0.875000 0.500000
vt 0.625000 0.750000
vt 0.625000 0.500000
vt 0.375000 1.000000
vt 0.375000 0.750000
vt 0.625000 0.000000
vt 0.375000 0.250000
vt 0.375000 0.000000
vt 0.375000 0.500000
vt 0.125000 0.750000
vt 0.125000 0.500000
vt 0.625000 0.250000
vt 0.875000 0.750000
vt 0.625000 1.000000
vn 0.0000 1.0000 0.0000
vn 0.0000 0.0000 1.0000
vn -1.0000 0.0000 0.0000
vn 0.0000 -1.0000 -0.0000
vn 1.0000 0.0000 0.0000
vn 0.0000 0.0000 -1.0000
usemtl Default_OBJ
s 1
f 1/1/1 2/2/1 3/3/1
f 2/2/2 4/4/2 5/5/2
f 6/6/3 7/7/3 4/8/3
f 8/9/4 4/10/4 7/11/4
f 3/3/5 5/5/5 8/9/5
f 1/12/6 8/9/6 7/7/6
f 1/1/1 6/13/1 2/2/1
f 2/2/2 6/14/2 4/4/2
f 6/6/3 1/12/3 7/7/3
f 8/9/4 5/5/4 4/10/4
f 3/3/5 2/2/5 5/5/5
f 1/12/6 3/3/6 8/9/6
o Cube.001
v -57.839077 33.596836 -12.030183
v -58.286289 27.505884 -13.386482
v -59.248268 30.005405 -9.865602
v -56.877098 31.097313 -15.551064
v -54.204823 26.855009 -11.809273
v -52.795631 30.446438 -13.973855
v -55.166801 29.354530 -8.288392
v -53.757610 32.945957 -10.452973
vt 0.625000 0.000000
vt 0.375000 0.250000
vt 0.375000 0.000000
vt 0.625000 0.250000
vt 0.375000 0.500000
vt 0.625000 0.500000
vt 0.375000 0.750000
vt 0.625000 0.750000
vt 0.375000 1.000000
vt 0.125000 0.750000
vt 0.125000 0.500000
vt 0.875000 0.500000
vt 0.625000 1.000000
vt 0.875000 0.750000
vn -0.9226 0.1471 -0.3565
vn 0.2175 -0.5650 -0.7959
vn 0.9226 -0.1471 0.3565
vn -0.2175 0.5650 0.7959
vn -0.3186 -0.8119 0.4893
vn 0.3186 0.8119 -0.4893
usemtl Default_OBJ
s 1
f 9/15/7 10/16/7 11/17/7
f 12/18/8 13/19/8 10/16/8
f 14/20/9 15/21/9 13/19/9
f 16/22/10 11/23/10 15/21/10
f 13/19/11 11/24/11 10/25/11
f 12/26/12 16/22/12 14/20/12
f 9/15/7 12/18/7 10/16/7
f 12/18/8 14/20/8 13/19/8
f 14/20/9 16/22/9 15/21/9
f 16/22/10 9/27/10 11/23/10
f 13/19/11 15/21/11 11/24/11
f 12/26/12 9/28/12 16/22/12
o Cube.002
v -43.845364 32.699265 21.610266
v -48.875324 39.567383 19.468582
v -49.910896 33.553844 20.606190
v -42.809792 38.712803 20.472660
v -48.059193 38.288223 13.449709
v -41.993660 37.433643 14.453786
v -49.094765 32.274685 14.587315
v -43.029232 31.420109 15.591392
vt 0.625000 0.000000
vt 0.375000 0.250000
vt 0.375000 0.000000
vt 0.625000 0.250000
vt 0.375000 0.500000
vt 0.625000 0.500000
vt 0.375000 0.750000
vt 0.625000 0.750000
vt 0.375000 1.000000
vt 0.125000 0.750000
vt 0.125000 0.500000
vt 0.875000 0.500000
vt 0.625000 1.000000
vt 0.875000 0.750000
vn -0.1315 0.2061 0.9697
vn 0.1668 0.9688 -0.1833
vn 0.1315 -0.2061 -0.9697
vn -0.1668 -0.9688 0.1833
vn -0.9772 0.1377 -0.1618
vn 0.9772 -0.1377 0.1618
usemtl Default_OBJ
s 1
f 17/29/13 18/30/13 19/31/13
f 20/32/14 21/33/14 18/30/14
f 22/34/15 23/35/15 21/33/15
f 24/36/16 19/37/16 23/35/16
f 21/33/17 19/38/17 18/39/17
f 20/40/18 24/36/18 22/34/18
f 17/29/13 20/32/13 18/30/13
f 20/32/14 22/34/14 21/33/14
f 22/34/15 24/36/15 23/35/15
f 24/36/16 17/41/16 19/37/16
f 21/33/17 23/35/17 19/38/17
f 20/40/18 17/42/18 24/36/18
o Cube.003
v -10.664440 48.291901 33.492226
v -11.004599 43.659000 32.460598
v -11.736300 45.560184 35.138653
v -9.932738 46.390717 30.814171
v -7.900151 43.163933 33.660255
v -6.828290 45.895645 32.013828
v -8.631852 45.065113 36.338310
v -7.559992 47.796833 34.691883
vt 0.625000 0.000000
vt 0.375000 0.250000
vt 0.375000 0.000000
vt 0.625000 0.250000
vt 0.375000 0.500000
vt 0.625000 0.500000
vt 0.375000 0.750000
vt 0.625000 0.750000
vt 0.375000 1.000000
vt 0.125000 0.750000
vt 0.125000 0.500000
vt 0.875000 0.500000
vt 0.625000 1.000000
vt 0.875000 0.750000
vn -0.9226 0.1471 -0.3565
vn 0.2175 -0.5650 -0.7959
vn 0.9226 -0.1471 0.3565
vn -0.2175 0.5650 0.7959
vn -0.3186 -0.8119 0.4893
vn 0.3186 0.8119 -0.4893
usemtl Default_OBJ
s 1
f 25/43/19 26/44/19 27/45/19
f 28/46/20 29/47/20 26/44/20
f 30/48/21 31/49/21 29/47/21
f 32/50/22 27/51/22 31/49/22
f 29/47/23 27/52/23 26/53/23
f 28/54/24 32/50/24 30/48/24
f 25/43/19 28/46/19 26/44/19
f 28/46/20 30/48/20 29/47/20
f 30/48/21 32/50/21 31/49/21
f 32/50/22 25/55/22 27/51/22
f 29/47/23 31/49/23 27/52/23
f 28/54/24 25/56/24 32/50/24
o Cube.004
v 16.382998 56.430618 44.983227
v 15.888216 49.691788 43.482662
v 14.823912 52.457176 47.378052
v 17.447302 53.665230 41.087837
v 20.403822 48.971680 45.227634
v 21.962908 52.945122 42.832809
v 19.339518 51.737068 49.123024
v 20.898603 55.710510 46.728199
vt 0.625000 0.000000
vt 0.375000 0.250000
vt 0.375000 0.000000
vt 0.625000 0.250000
vt 0.375000 0.500000
vt 0.625000 0.500000
vt 0.375000 0.750000
vt 0.625000 0.750000
vt 0.375000 1.000000
vt 0.125000 0.750000
vt 0.125000 0.500000
vt 0.875000 0.500000
vt 0.625000 1.000000
vt 0.875000 0.750000
vn -0.9226 0.1471 -0.3565
vn 0.2175 -0.5650 -0.7959
vn 0.9226 -0.1471 0.3565
vn -0.2175 0.5650 0.7959
vn -0.3186 -0.8119 0.4893
vn 0.3186 0.8119 -0.4893
usemtl Default_OBJ
s 1
f 33/57/25 34/58/25 35/59/25
f 36/60/26 37/61/26 34/58/26
f 38/62/27 39/63/27 37/61/27
f 40/64/28 35/65/28 39/63/28
f 37/61/29 35/66/29 34/67/29
f 36/68/30 40/64/30 38/62/30
f 33/57/25 36/60/25 34/58/25
f 36/60/26 38/62/26 37/61/26
f 38/62/27 40/64/27 39/63/27
f 40/64/28 33/69/28 35/65/28
f 37/61/29 39/63/29 35/66/29
f 36/68/30 33/70/30 40/64/30
o Cube.005
v 49.200489 63.915764 35.620575
v 48.837456 58.971333 34.519577
v 48.056553 61.000359 37.377712
v 49.981396 61.886738 32.762436
v 52.150661 58.442970 35.799900
v 53.294598 61.358379 34.042767
v 51.369755 60.472000 38.658043
v 52.513695 63.387405 36.900902
vt 0.625000 0.000000
vt 0.375000 0.250000
vt 0.375000 0.000000
vt 0.625000 0.250000
vt 0.375000 0.500000
vt 0.625000 0.500000
vt 0.375000 0.750000
vt 0.625000 0.750000
vt 0.375000 1.000000
vt 0.125000 0.750000
vt 0.125000 0.500000
vt 0.875000 0.500000
vt 0.625000 1.000000
vt 0.875000 0.750000
vn -0.9226 0.1471 -0.3565
vn 0.2175 -0.5650 -0.7959
vn 0.9226 -0.1471 0.3565
vn -0.2175 0.5650 0.7959
vn -0.3186 -0.8119 0.4893
vn 0.3186 0.8119 -0.4893
usemtl Default_OBJ
s 1
f 41/71/31 42/72/31 43/73/31
f 44/74/32 45/75/32 42/72/32
f 46/76/33 47/77/33 45/75/33
f 48/78/34 43/79/34 47/77/34
f 45/75/35 43/80/35 42/81/35
f 44/82/36 48/78/36 46/76/36
f 41/71/31 44/74/31 42/72/31
f 44/74/32 46/76/32 45/75/32
f 46/76/33 48/78/33 47/77/33
f 48/78/34 41/83/34 43/79/34
f 45/75/35 47/77/35 43/80/35
f 44/82/36 41/84/36 48/78/36
o Cube.006
v 64.014580 49.695702 -3.495909
v 63.488186 42.526264 -5.092360
v 62.355873 45.468357 -0.948059
v 65.146896 46.753605 -7.640212
v 68.292336 41.760139 -3.235884
v 69.951042 45.987484 -5.783734
v 67.160019 44.702236 0.908418
v 68.818733 48.929577 -1.639433
vt 0.625000 0.000000
vt 0.375000 0.250000
vt 0.375000 0.000000
vt 0.625000 0.250000
vt 0.375000 0.500000
vt 0.625000 0.500000
vt 0.375000 0.750000
vt 0.625000 0.750000
vt 0.375000 1.000000
vt 0.125000 0.750000
vt 0.125000 0.500000
vt 0.875000 0.500000
vt 0.625000 1.000000
vt 0.875000 0.750000
vn -0.9226 0.1471 -0.3565
vn 0.2175 -0.5650 -0.7959
vn 0.9226 -0.1471 0.3565
vn -0.2175 0.5650 0.7959
vn -0.3186 -0.8119 0.4893
vn -0.3186 -0.8118 0.4893
vn 0.3186 0.8119 -0.4893
vn 0.3186 0.8118 -0.4893
usemtl Default_OBJ
s 1
f 49/85/37 50/86/37 51/87/37
f 52/88/38 53/89/38 50/86/38
f 54/90/39 55/91/39 53/89/39
f 56/92/40 51/93/40 55/91/40
f 53/89/41 51/94/41 50/95/42
f 52/96/43 56/92/43 54/90/44
f 49/85/37 52/88/37 50/86/37
f 52/88/38 54/90/38 53/89/38
f 54/90/39 56/92/39 55/91/39
f 56/92/40 49/97/40 51/93/40
f 53/89/41 55/91/41 51/94/41
f 52/96/43 49/98/43 56/92/43
o Cube.007
v 55.156490 49.032265 -38.506313
v 54.718109 43.061615 -39.835827
v 53.775131 45.511768 -36.384483
v 56.099472 46.582111 -41.957657
v 58.718967 42.423592 -38.289768
v 60.100327 45.944088 -40.411598
v 57.775986 44.873741 -34.838425
v 59.157349 48.394241 -36.960255
vt 0.625000 0.000000
vt 0.375000 0.250000
vt 0.375000 0.000000
vt 0.625000 0.250000
vt 0.375000 0.500000
vt 0.625000 0.500000
vt 0.375000 0.750000
vt 0.625000 0.750000
vt 0.375000 1.000000
vt 0.125000 0.750000
vt 0.125000 0.500000
vt 0.875000 0.500000
vt 0.625000 1.000000
vt 0.875000 0.750000
vn -0.9226 0.1471 -0.3565
vn 0.2175 -0.5650 -0.7959
vn 0.9226 -0.1471 0.3565
vn -0.2175 0.5650 0.7959
vn -0.3186 -0.8119 0.4893
vn -0.3185 -0.8119 0.4893
vn 0.3186 0.8119 -0.4893
vn 0.3186 0.8118 -0.4893
usemtl Default_OBJ
s 1
f 57/99/45 58/100/45 59/101/45
f 60/102/46 61/103/46 58/100/46
f 62/104/47 63/105/47 61/103/47
f 64/106/48 59/107/48 63/105/48
f 61/103/49 59/108/49 58/109/50
f 60/110/51 64/106/51 62/104/51
f 57/99/45 60/102/45 58/100/45
f 60/102/46 62/104/46 61/103/46
f 62/104/47 64/106/47 63/105/47
f 64/106/48 57/111/48 59/107/48
f 61/103/49 63/105/49 59/108/49
f 60/110/51 57/112/52 64/106/51
o Cube.008
v 33.318245 53.552536 -50.360504
v 32.817703 46.735256 -51.878536
v 31.741009 49.532841 -47.937801
v 34.394936 50.754955 -54.301239
v 37.385872 46.006767 -50.113251
v 38.963108 50.026463 -52.535954
v 36.309181 48.804348 -46.172516
v 37.886414 52.824047 -48.595219
vt 0.625000 0.000000
vt 0.375000 0.250000
vt 0.375000 0.000000
vt 0.625000 0.250000
vt 0.375000 0.500000
vt 0.625000 0.500000
vt 0.375000 0.750000
vt 0.625000 0.750000
vt 0.375000 1.000000
vt 0.125000 0.750000
vt 0.125000 0.500000
vt 0.875000 0.500000
vt 0.625000 1.000000
vt 0.875000 0.750000
vn -0.9226 0.1471 -0.3565
vn 0.2175 -0.5650 -0.7959
vn 0.9226 -0.1471 0.3565
vn -0.2175 0.5650 0.7959
vn -0.3186 -0.8119 0.4893
vn -0.3186 -0.8118 0.4893
vn 0.3186 0.8119 -0.4893
usemtl Default_OBJ
s 1
f 65/113/53 66/114/53 67/115/53
f 68/116/54 69/117/54 66/114/54
f 70/118/55 71/119/55 69/117/55
f 72/120/56 67/121/56 71/119/56
f 69/117/57 67/122/57 66/123/58
f 68/124/59 72/120/59 70/118/59
f 65/113/53 68/116/53 66/114/53
f 68/116/54 70/118/54 69/117/54
f 70/118/55 72/120/55 71/119/55
f 72/120/56 65/125/56 67/121/56
f 69/117/57 71/119/57 67/122/57
f 68/124/59 65/126/59 72/120/59
o Cube.009
v 6.245055 51.055122 -55.396824
v 5.538306 41.429340 -57.540241
v 4.018049 45.379436 -51.976044
v 7.765312 47.105030 -60.961021
v 11.988420 40.400734 -55.047710
v 14.215425 46.076420 -58.468491
v 10.468163 44.350830 -49.483513
v 12.695169 50.026516 -52.904293
vt 0.625000 0.000000
vt 0.375000 0.250000
vt 0.375000 0.000000
vt 0.625000 0.250000
vt 0.375000 0.500000
vt 0.625000 0.500000
vt 0.375000 0.750000
vt 0.625000 0.750000
vt 0.375000 1.000000
vt 0.125000 0.750000
vt 0.125000 0.500000
vt 0.875000 0.500000
vt 0.625000 1.000000
vt 0.875000 0.750000
vn -0.9226 0.1471 -0.3565
vn 0.2175 -0.5650 -0.7959
vn 0.9226 -0.1471 0.3565
vn -0.2175 0.5650 0.7959
vn -0.3186 -0.8119 0.4893
vn 0.3186 0.8119 -0.4893
vn -0.3186 -0.8118 0.4893
usemtl Default_OBJ
s 1
f 73/127/60 74/128/60 75/129/60
f 76/130/61 77/131/61 74/128/61
f 78/132/62 79/133/62 77/131/62
f 80/134/63 75/135/63 79/133/63
f 77/131/64 75/136/64 74/137/64
f 76/138/65 80/134/65 78/132/65
f 73/127/60 76/130/60 74/128/60
f 76/130/61 78/132/61 77/131/61
f 78/132/62 80/134/62 79/133/62
f 80/134/63 73/139/63 75/135/63
f 77/131/64 79/133/66 75/136/64
f 76/138/65 73/140/65 80/134/65
o Cube.010
v -26.231537 51.716312 -42.105934
v -26.734882 44.860855 -43.632465
v -27.817604 47.674103 -39.669662
v -25.148813 48.903065 -46.068737
v -22.141129 44.128284 -41.857292
v -20.555061 48.170494 -44.293564
v -23.223852 46.941532 -37.894489
v -21.637783 50.983742 -40.330761
vt 0.625000 0.000000
vt 0.375000 0.250000
vt 0.375000 0.000000
vt 0.625000 0.250000
vt 0.375000 0.500000
vt 0.625000 0.500000
vt 0.375000 0.750000
vt 0.625000 0.750000
vt 0.375000 1.000000
vt 0.125000 0.750000
vt 0.125000 0.500000
vt 0.875000 0.500000
vt 0.625000 1.000000
vt 0.875000 0.750000
vn -0.9226 0.1471 -0.3565
vn 0.2175 -0.5650 -0.7959
vn 0.9226 -0.1471 0.3565
vn -0.2175 0.5650 0.7959
vn -0.3186 -0.8119 0.4893
vn 0.3186 0.8119 -0.4893
vn -0.3186 -0.8118 0.4893
usemtl Default_OBJ
s 1
f 81/141/67 82/142/67 83/143/67
f 84/144/68 85/145/68 82/142/68
f 86/146/69 87/147/69 85/145/69
f 88/148/70 83/149/70 87/147/70
f 85/145/71 83/150/71 82/151/71
f 84/152/72 88/148/72 86/146/72
f 81/141/67 84/144/67 82/142/67
f 84/144/68 86/146/68 85/145/68
f 86/146/69 88/148/69 87/147/69
f 88/148/70 81/153/70 83/149/70
f 85/145/71 87/147/73 83/150/71
f 84/152/72 81/154/72 88/148/72
o Plane.001_Cube.011
v -250.028244 233.904037 226.605103
v 250.028244 -233.811157 237.538376
v 250.028244 233.904037 226.605103
v -250.028244 -233.904099 233.561584
v 250.028244 -233.904099 233.561584
v -250.028244 -233.811157 237.538376
v -250.028244 233.811081 222.628311
v 250.028244 233.811081 222.628311
vt 0.875000 0.500000
vt 0.625000 0.750000
vt 0.625000 0.500000
vt 0.375000 1.000000
vt 0.375000 0.750000
vt 0.625000 0.000000
vt 0.375000 0.250000
vt 0.375000 0.000000
vt 0.375000 0.500000
vt 0.125000 0.750000
vt 0.125000 0.500000
vt 0.625000 0.250000
vt 0.875000 0.750000
vt 0.625000 1.000000
vn 0.0000 0.0234 0.9997
vn 0.0000 -0.9997 0.0234
vn -1.0000 0.0000 0.0000
vn 0.0000 -0.0234 -0.9997
vn 1.0000 0.0000 0.0000
vn 0.0000 0.9997 -0.0234
usemtl Default_OBJ
s 1
f 89/155/74 90/156/74 91/157/74
f 90/156/75 92/158/75 93/159/75
f 94/160/76 95/161/76 92/162/76
f 96/163/77 92/164/77 95/165/77
f 91/157/78 93/159/78 96/163/78
f 89/166/79 96/163/79 95/161/79
f 89/155/74 94/167/74 90/156/74
f 90/156/75 94/168/75 92/158/75
f 94/160/76 89/166/76 95/161/76
f 96/163/77 93/159/77 92/164/77
f 91/157/78 90/156/78 93/159/78
f 89/166/79 91/157/79 96/163/79
o Plane.002_Cube.012
v -250.028244 233.904114 -235.113647
v 250.028244 -233.811081 -224.180374
v 250.028244 233.904114 -235.113647
v -250.028244 -233.904037 -228.157166
v 250.028244 -233.904037 -228.157166
v -250.028244 -233.811081 -224.180374
v -250.028244 233.811157 -239.090439
v 250.028244 233.811157 -239.090439
vt 0.875000 0.500000
vt 0.625000 0.750000
vt 0.625000 0.500000
vt 0.375000 1.000000
vt 0.375000 0.750000
vt 0.625000 0.000000
vt 0.375000 0.250000
vt 0.375000 0.000000
vt 0.375000 0.500000
vt 0.125000 0.750000
vt 0.125000 0.500000
vt 0.625000 0.250000
vt 0.875000 0.750000
vt 0.625000 1.000000
vn 0.0000 0.0234 0.9997
vn 0.0000 -0.9997 0.0234
vn -1.0000 0.0000 0.0000
vn 0.0000 -0.0234 -0.9997
vn 1.0000 0.0000 0.0000
vn 0.0000 0.9997 -0.0234
usemtl Default_OBJ
s 1
f 97/169/80 98/170/80 99/171/80
f 98/170/81 100/172/81 101/173/81
f 102/174/82 103/175/82 100/176/82
f 104/177/83 100/178/83 103/179/83
f 99/171/84 101/173/84 104/177/84
f 97/180/85 104/177/85 103/175/85
f 97/169/80 102/181/80 98/170/80
f 98/170/81 102/182/81 100/172/81
f 102/174/82 97/180/82 103/175/82
f 104/177/83 101/173/83 100/178/83
f 99/171/84 98/170/84 101/173/84
f 97/180/85 99/171/85 104/177/85
o Plane.003_Cube.013
v -250.028244 227.240479 -233.921448
v 250.028244 227.240417 233.921509
v 250.028244 227.240479 -233.921448
v -250.028244 223.262543 233.921509
v 250.028244 223.262543 233.921509
v -250.028244 227.240417 233.921509
v -250.028244 223.262604 -233.921448
v 250.028244 223.262604 -233.921448
vt 0.875000 0.500000
vt 0.625000 0.750000
vt 0.625000 0.500000
vt 0.375000 1.000000
vt 0.375000 0.750000
vt 0.625000 0.000000
vt 0.375000 0.250000
vt 0.375000 0.000000
vt 0.375000 0.500000
vt 0.125000 0.750000
vt 0.125000 0.500000
vt 0.625000 0.250000
vt 0.875000 0.750000
vt 0.625000 1.000000
vn 0.0000 1.0000 0.0000
vn 0.0000 0.0000 1.0000
vn -1.0000 0.0000 0.0000
vn 0.0000 -1.0000 -0.0000
vn 1.0000 0.0000 0.0000
vn 0.0000 0.0000 -1.0000
usemtl Default_OBJ
s 1
f 105/183/86 106/184/86 107/185/86
f 106/184/87 108/186/87 109/187/87
f 110/188/88 111/189/88 108/190/88
f 112/191/89 108/192/89 111/193/89
f 107/185/90 109/187/90 112/191/90
f 105/194/91 112/191/91 111/189/91
f 105/183/86 110/195/86 106/184/86
f 106/184/87 110/196/87 108/186/87
f 110/188/88 105/194/88 111/189/88
f 112/191/89 109/187/89 108/192/89
f 107/185/90 106/184/90 109/187/90
f 105/194/91 107/185/91 112/191/91
o Plane.004_Cube.014
v -243.046432 233.904114 -234.377319
v -241.511032 -233.811157 265.796295
v -230.581100 233.904022 265.523804
v -250.000809 -233.904022 -234.203949
v -237.535477 -233.904114 265.697174
v -253.976364 -233.811081 -234.104828
v -239.070877 233.811157 -234.476440
v -226.605545 233.811066 265.424683
vt 0.875000 0.500000
vt 0.625000 0.750000
vt 0.625000 0.500000
vt 0.375000 1.000000
vt 0.375000 0.750000
vt 0.625000 0.000000
vt 0.375000 0.250000
vt 0.375000 0.000000
vt 0.375000 0.500000
vt 0.125000 0.750000
vt 0.125000 0.500000
vt 0.625000 0.250000
vt 0.875000 0.750000
vt 0.625000 1.000000
vn -0.9994 0.0234 0.0249
vn -0.0234 -0.9997 0.0006
vn -0.0249 0.0000 -0.9997
vn 0.9994 -0.0234 -0.0249
vn 0.0249 -0.0000 0.9997
vn 0.0234 0.9997 -0.0006
usemtl Default_OBJ
s 1
f 113/197/92 114/198/92 115/199/92
f 114/198/93 116/200/93 117/201/93
f 118/202/94 119/203/94 116/204/94
f 120/205/95 116/206/95 119/207/95
f 115/199/96 117/201/96 120/205/96
f 113/208/97 120/205/97 119/203/97
f 113/197/92 118/209/92 114/198/92
f 114/198/93 118/210/93 116/200/93
f 118/202/94 113/208/94 119/203/94
f 120/205/95 117/201/95 116/206/95
f 115/199/96 114/198/96 117/201/96
f 113/208/97 115/199/97 120/205/97
o Plane.005_Cube.015
v 231.931488 233.904114 -234.377319
v 233.466888 -233.811157 265.796295
v 244.396820 233.904022 265.523804
v 224.977112 -233.904022 -234.203949
v 237.442444 -233.904114 265.697174
v 221.001556 -233.811081 -234.104828
v 235.907043 233.811157 -234.476440
v 248.372375 233.811066 265.424683
vt 0.875000 0.500000
vt 0.625000 0.750000
vt 0.625000 0.500000
vt 0.375000 1.000000
vt 0.375000 0.750000
vt 0.625000 0.000000
vt 0.375000 0.250000
vt 0.375000 0.000000
vt 0.375000 0.500000
vt 0.125000 0.750000
vt 0.125000 0.500000
vt 0.625000 0.250000
vt 0.875000 0.750000
vt 0.625000 1.000000
vn -0.9994 0.0234 0.0249
vn -0.0234 -0.9997 0.0006
vn -0.0249 0.0000 -0.9997
vn 0.9994 -0.0234 -0.0249
vn 0.0249 -0.0000 0.9997
vn 0.0234 0.9997 -0.0006
usemtl Default_OBJ
s 1
f 121/211/98 122/212/98 123/213/98
f 122/212/99 124/214/99 125/215/99
f 126/216/100 127/217/100 124/218/100
f 128/219/101 124/220/101 127/221/101
f 123/213/102 125/215/102 128/219/102
f 121/222/103 128/219/103 127/217/103
f 121/211/98 126/223/98 122/212/98
f 122/212/99 126/224/99 124/214/99
f 126/216/100 121/222/100 127/217/100
f 128/219/101 125/215/101 124/220/101
f 123/213/102 122/212/102 125/215/102
f 121/222/103 123/213/103 128/219/103
o Cube_Cube.011
v 11.194593 60.944851 -17.161602
v 11.194593 42.286335 -4.722591
v 20.523851 60.944851 1.496914
v 1.865335 60.944851 1.496914
vt 0.375000 0.000000
vt 0.375000 0.250000
vt 0.625000 0.250000
vt 0.375000 0.500000
vt 0.625000 0.500000
vt 0.375000 0.750000
vt 0.625000 0.750000
vt 0.125000 0.500000
vt 0.125000 0.750000
vn 0.8571 -0.2857 -0.4286
vn 0.0000 -0.3162 0.9487
vn -0.8571 -0.2857 -0.4286
vn 0.0000 1.0000 0.0000
usemtl None
s off
f 129/225/104 131/226/104 130/227/104
f 131/226/105 132/228/105 130/229/105
f 132/228/106 129/230/106 130/231/106
f 131/232/107 129/233/107 132/228/107
o Cube.011_Cube.012
v 10.777565 61.825806 -17.161602
v 10.639828 80.483810 -4.722591
v 1.448561 61.756935 1.496914
v 20.106569 61.894672 1.496914
vt 0.375000 0.000000
vt 0.375000 0.250000
vt 0.625000 0.250000
vt 0.375000 0.500000
vt 0.625000 0.500000
vt 0.375000 0.750000
vt 0.625000 0.750000
vt 0.125000 0.500000
vt 0.125000 0.750000
vn -0.8592 0.2794 -0.4286
vn -0.0023 0.3162 0.9487
vn 0.8550 0.2920 -0.4286
vn 0.0074 -1.0000 0.0000
usemtl None
s off
f 133/234/108 135/235/108 134/236/108
f 135/235/109 136/237/109 134/238/109
f 136/237/110 133/239/110 134/240/110
f 135/241/111 133/242/111 136/237/111
