# Blender v2.82 (sub 7) OBJ File: 'Level4.blend'
# www.blender.org
o Plane_Cube
v 250.028244 1.988940 -233.921478
v 250.028244 -1.988940 -233.921478
v 250.028244 1.988940 233.921478
v 250.028244 -1.988940 233.921478
v -250.028244 1.988940 -233.921478
v -250.028244 -1.988940 -233.921478
v -250.028244 1.988940 233.921478
v -250.028244 -1.988940 233.921478
vt 0.875000 0.500000
vt 0.625000 0.750000
vt 0.625000 0.500000
vt 0.375000 1.000000
vt 0.375000 0.750000
vt 0.625000 0.000000
vt 0.375000 0.250000
vt 0.375000 0.000000
vt 0.375000 0.500000
vt 0.125000 0.750000
vt 0.125000 0.500000
vt 0.625000 0.250000
vt 0.875000 0.750000
vt 0.625000 1.000000
vn 0.0000 1.0000 0.0000
vn 0.0000 0.0000 1.0000
vn -1.0000 0.0000 0.0000
vn 0.0000 -1.0000 0.0000
vn 1.0000 0.0000 0.0000
vn 0.0000 0.0000 -1.0000
s off
f 5/1/1 3/2/1 1/3/1
f 3/2/2 8/4/2 4/5/2
f 7/6/3 6/7/3 8/8/3
f 2/9/4 8/10/4 6/11/4
f 1/3/5 4/5/5 2/9/5
f 5/12/6 2/9/6 6/7/6
f 5/1/1 7/13/1 3/2/1
f 3/2/2 7/14/2 8/4/2
f 7/6/3 5/12/3 6/7/3
f 2/9/4 4/5/4 8/10/4
f 1/3/5 3/2/5 4/5/5
f 5/12/6 1/3/6 2/9/6
o Cube.001
v -57.480583 30.126223 -10.991053
v -56.843483 31.749926 -11.969670
v -57.045670 28.996178 -12.582859
v -56.408566 30.619881 -13.561477
v -55.635334 29.831959 -10.277989
v -54.998230 31.455662 -11.256607
v -55.200417 28.701914 -11.869796
v -54.563316 30.325617 -12.848413
vt 0.625000 0.000000
vt 0.375000 0.250000
vt 0.375000 0.000000
vt 0.625000 0.250000
vt 0.375000 0.500000
vt 0.625000 0.500000
vt 0.375000 0.750000
vt 0.625000 0.750000
vt 0.375000 1.000000
vt 0.125000 0.750000
vt 0.125000 0.500000
vt 0.875000 0.500000
vt 0.625000 1.000000
vt 0.875000 0.750000
vn -0.9226 0.1471 -0.3565
vn 0.2175 -0.5650 -0.7959
vn 0.9226 -0.1471 0.3565
vn -0.2175 0.5650 0.7959
vn -0.3186 -0.8119 0.4893
vn 0.3186 0.8118 -0.4893
vn 0.3186 0.8119 -0.4893
s off
f 10/15/7 11/16/7 9/17/7
f 12/18/8 15/19/8 11/16/8
f 16/20/9 13/21/9 15/19/9
f 14/22/10 9/23/10 13/21/10
f 15/19/11 9/24/11 11/25/11
f 12/26/12 14/22/12 16/20/12
f 10/15/7 12/18/7 11/16/7
f 12/18/8 16/20/8 15/19/8
f 16/20/9 14/22/9 13/21/9
f 14/22/10 10/27/10 9/23/10
f 15/19/11 13/21/11 9/24/11
f 12/26/13 10/28/13 14/22/13
o Cube.002
v -47.227772 34.868698 18.521156
v -45.273415 34.593346 18.844677
v -46.894104 36.806301 18.154612
v -44.939747 36.530952 18.478132
v -46.964809 34.456543 16.581831
v -45.010452 34.181194 16.905352
v -46.631142 36.394150 16.215286
v -44.676785 36.118797 16.538807
vt 0.625000 0.000000
vt 0.375000 0.250000
vt 0.375000 0.000000
vt 0.625000 0.250000
vt 0.375000 0.500000
vt 0.625000 0.500000
vt 0.375000 0.750000
vt 0.625000 0.750000
vt 0.375000 1.000000
vt 0.125000 0.750000
vt 0.125000 0.500000
vt 0.875000 0.500000
vt 0.625000 1.000000
vt 0.875000 0.750000
vn -0.1315 0.2061 0.9697
vn 0.1668 0.9688 -0.1833
vn 0.1315 -0.2061 -0.9697
vn -0.1668 -0.9688 0.1833
vn -0.9772 0.1377 -0.1618
vn 0.9772 -0.1377 0.1618
s off
f 18/29/14 19/30/14 17/31/14
f 20/32/15 23/33/15 19/30/15
f 24/34/16 21/35/16 23/33/16
f 22/36/17 17/37/17 21/35/17
f 23/33/18 17/38/18 19/39/18
f 20/40/19 22/36/19 24/34/19
f 18/29/14 20/32/14 19/30/14
f 20/32/15 24/34/15 23/33/15
f 24/34/16 22/36/16 21/35/16
f 22/36/17 18/41/17 17/37/17
f 23/33/18 21/35/18 17/38/18
f 20/40/19 18/42/19 22/36/19
o Cube.003
v -10.740930 45.628223 34.504913
v -10.103827 47.251926 33.526295
v -10.306014 44.498180 32.913105
v -9.668911 46.121880 31.934488
v -8.895679 45.333961 35.217976
v -8.258576 46.957661 34.239361
v -8.460764 44.203915 33.626171
v -7.823661 45.827618 32.647552
vt 0.625000 0.000000
vt 0.375000 0.250000
vt 0.375000 0.000000
vt 0.625000 0.250000
vt 0.375000 0.500000
vt 0.625000 0.500000
vt 0.375000 0.750000
vt 0.625000 0.750000
vt 0.375000 1.000000
vt 0.125000 0.750000
vt 0.125000 0.500000
vt 0.875000 0.500000
vt 0.625000 1.000000
vt 0.875000 0.750000
vn -0.9226 0.1471 -0.3565
vn 0.2175 -0.5650 -0.7959
vn 0.9226 -0.1471 0.3565
vn -0.2175 0.5650 0.7959
vn -0.3186 -0.8119 0.4893
vn 0.3186 0.8119 -0.4893
vn -0.3185 -0.8118 0.4893
s off
f 26/43/20 27/44/20 25/45/20
f 28/46/21 31/47/21 27/44/21
f 32/48/22 29/49/22 31/47/22
f 30/50/23 25/51/23 29/49/23
f 31/47/24 25/52/24 27/53/24
f 28/54/25 30/50/25 32/48/25
f 26/43/20 28/46/20 27/44/20
f 28/46/21 32/48/21 31/47/21
f 32/48/22 30/50/22 29/49/22
f 30/50/23 26/55/23 25/51/23
f 31/47/26 29/49/26 25/52/26
f 28/54/25 26/56/25 30/50/25
o Cube.004
v 16.934776 52.601460 46.034103
v 17.571878 54.225163 45.055485
v 17.369692 51.471416 44.442295
v 18.006794 53.095116 43.463680
v 18.780025 52.307198 46.747166
v 19.417128 53.930897 45.768551
v 19.214941 51.177151 45.155361
v 19.852043 52.800854 44.176743
vt 0.625000 0.000000
vt 0.375000 0.250000
vt 0.375000 0.000000
vt 0.625000 0.250000
vt 0.375000 0.500000
vt 0.625000 0.500000
vt 0.375000 0.750000
vt 0.625000 0.750000
vt 0.375000 1.000000
vt 0.125000 0.750000
vt 0.125000 0.500000
vt 0.875000 0.500000
vt 0.625000 1.000000
vt 0.875000 0.750000
vn -0.9226 0.1471 -0.3565
vn 0.2175 -0.5650 -0.7959
vn 0.9226 -0.1471 0.3565
vn -0.2175 0.5650 0.7959
vn -0.3186 -0.8119 0.4893
vn 0.3186 0.8119 -0.4893
vn -0.3185 -0.8118 0.4893
s off
f 34/57/27 35/58/27 33/59/27
f 36/60/28 39/61/28 35/58/28
f 40/62/29 37/63/29 39/61/29
f 38/64/30 33/65/30 37/63/30
f 39/61/31 33/66/31 35/67/31
f 36/68/32 38/64/32 40/62/32
f 34/57/27 36/60/27 35/58/27
f 36/60/28 40/62/28 39/61/28
f 40/62/29 38/64/29 37/63/29
f 38/64/30 34/69/30 33/65/30
f 39/61/33 37/63/33 33/66/33
f 36/68/32 34/70/32 38/64/32
o Cube.005
v 49.216942 61.079678 36.638908
v 49.854042 62.703381 35.660290
v 49.651855 59.949635 35.047100
v 50.288960 61.573334 34.068485
v 51.062191 60.785416 37.351971
v 51.699295 62.409115 36.373356
v 51.497108 59.655369 35.760166
v 52.134209 61.279072 34.781548
vt 0.625000 0.000000
vt 0.375000 0.250000
vt 0.375000 0.000000
vt 0.625000 0.250000
vt 0.375000 0.500000
vt 0.625000 0.500000
vt 0.375000 0.750000
vt 0.625000 0.750000
vt 0.375000 1.000000
vt 0.125000 0.750000
vt 0.125000 0.500000
vt 0.875000 0.500000
vt 0.625000 1.000000
vt 0.875000 0.750000
vn -0.9226 0.1471 -0.3565
vn 0.2175 -0.5650 -0.7959
vn 0.9226 -0.1471 0.3565
vn -0.2175 0.5650 0.7959
vn -0.3186 -0.8119 0.4893
vn 0.3185 0.8119 -0.4893
vn -0.3185 -0.8118 0.4893
vn 0.3186 0.8118 -0.4893
s off
f 42/71/34 43/72/34 41/73/34
f 44/74/35 47/75/35 43/72/35
f 48/76/36 45/77/36 47/75/36
f 46/78/37 41/79/37 45/77/37
f 47/75/38 41/80/38 43/81/38
f 44/82/39 46/78/39 48/76/39
f 42/71/34 44/74/34 43/72/34
f 44/74/35 48/76/35 47/75/35
f 48/76/36 46/78/36 45/77/36
f 46/78/37 42/83/37 41/79/37
f 47/75/40 45/77/40 41/80/40
f 44/82/41 42/84/41 46/78/41
o Cube.006
v 64.694824 45.628223 -2.437224
v 65.331924 47.251926 -3.415841
v 65.129738 44.498180 -4.029030
v 65.766838 46.121880 -5.007648
v 66.540077 45.333961 -1.724160
v 67.177177 46.957661 -2.702778
v 66.974991 44.203915 -3.315966
v 67.612091 45.827618 -4.294584
vt 0.625000 0.000000
vt 0.375000 0.250000
vt 0.375000 0.000000
vt 0.625000 0.250000
vt 0.375000 0.500000
vt 0.625000 0.500000
vt 0.375000 0.750000
vt 0.625000 0.750000
vt 0.375000 1.000000
vt 0.125000 0.750000
vt 0.125000 0.500000
vt 0.875000 0.500000
vt 0.625000 1.000000
vt 0.875000 0.750000
vn -0.9226 0.1471 -0.3565
vn 0.2175 -0.5650 -0.7959
vn 0.9226 -0.1471 0.3565
vn -0.2175 0.5650 0.7959
vn -0.3186 -0.8119 0.4893
vn 0.3185 0.8119 -0.4893
vn -0.3185 -0.8119 0.4893
vn 0.3186 0.8119 -0.4893
s off
f 50/85/42 51/86/42 49/87/42
f 52/88/43 55/89/43 51/86/43
f 56/90/44 53/91/44 55/89/44
f 54/92/45 49/93/45 53/91/45
f 55/89/46 49/94/46 51/95/46
f 52/96/47 54/92/47 56/90/47
f 50/85/42 52/88/42 51/86/42
f 52/88/43 56/90/43 55/89/43
f 56/90/44 54/92/44 53/91/44
f 54/92/45 50/97/45 49/93/45
f 55/89/48 53/91/48 49/94/48
f 52/96/49 50/98/49 54/92/49
o Cube.007
v 55.479095 45.628223 -37.469368
v 56.116196 47.251926 -38.447987
v 55.914009 44.498180 -39.061176
v 56.551113 46.121880 -40.039791
v 57.324345 45.333961 -36.756306
v 57.961449 46.957661 -37.734921
v 57.759262 44.203915 -38.348110
v 58.396362 45.827618 -39.326729
vt 0.625000 0.000000
vt 0.375000 0.250000
vt 0.375000 0.000000
vt 0.625000 0.250000
vt 0.375000 0.500000
vt 0.625000 0.500000
vt 0.375000 0.750000
vt 0.625000 0.750000
vt 0.375000 1.000000
vt 0.125000 0.750000
vt 0.125000 0.500000
vt 0.875000 0.500000
vt 0.625000 1.000000
vt 0.875000 0.750000
vn -0.9226 0.1471 -0.3565
vn 0.2175 -0.5650 -0.7959
vn 0.9226 -0.1471 0.3565
vn -0.2175 0.5650 0.7959
vn -0.3186 -0.8119 0.4893
vn 0.3185 0.8119 -0.4893
vn -0.3185 -0.8118 0.4893
vn 0.3186 0.8118 -0.4893
s off
f 58/99/50 59/100/50 57/101/50
f 60/102/51 63/103/51 59/100/51
f 64/104/52 61/105/52 63/103/52
f 62/106/53 57/107/53 61/105/53
f 63/103/54 57/108/54 59/109/54
f 60/110/55 62/106/55 64/104/55
f 58/99/50 60/102/50 59/100/50
f 60/102/51 64/104/51 63/103/51
f 64/104/52 62/106/52 61/105/52
f 62/106/53 58/111/53 57/107/53
f 63/103/56 61/105/56 57/108/56
f 60/110/57 58/112/57 62/106/57
o Cube.008
v 33.893425 49.679947 -49.308205
v 34.530525 51.303650 -50.286823
v 34.328339 48.549904 -50.900013
v 34.965443 50.173603 -51.878628
v 35.738674 49.385685 -48.595142
v 36.375778 51.009384 -49.573757
v 36.173592 48.255638 -50.186947
v 36.810692 49.879341 -51.165565
vt 0.625000 0.000000
vt 0.375000 0.250000
vt 0.375000 0.000000
vt 0.625000 0.250000
vt 0.375000 0.500000
vt 0.625000 0.500000
vt 0.375000 0.750000
vt 0.625000 0.750000
vt 0.375000 1.000000
vt 0.125000 0.750000
vt 0.125000 0.500000
vt 0.875000 0.500000
vt 0.625000 1.000000
vt 0.875000 0.750000
vn -0.9226 0.1471 -0.3565
vn 0.2175 -0.5650 -0.7959
vn 0.9226 -0.1471 0.3565
vn -0.2175 0.5650 0.7959
vn -0.3186 -0.8119 0.4893
vn 0.3186 0.8119 -0.4893
vn -0.3185 -0.8119 0.4893
vn 0.3186 0.8118 -0.4893
s off
f 66/113/58 67/114/58 65/115/58
f 68/116/59 71/117/59 67/114/59
f 72/118/60 69/119/60 71/117/60
f 70/120/61 65/121/61 69/119/61
f 71/117/62 65/122/62 67/123/62
f 68/124/63 70/120/63 72/118/63
f 66/113/58 68/116/58 67/114/58
f 68/116/59 72/118/59 71/117/59
f 72/118/60 70/120/60 69/119/60
f 70/120/61 66/125/61 65/121/61
f 71/117/64 69/119/64 65/122/64
f 68/124/65 66/126/65 70/120/65
o Cube.009
v 7.658103 45.628223 -54.293594
v 8.295206 47.251926 -55.272213
v 8.093019 44.498180 -55.885403
v 8.730122 46.121880 -56.864017
v 9.503353 45.333961 -53.580532
v 10.140456 46.957661 -54.559147
v 9.938269 44.203915 -55.172337
v 10.575372 45.827618 -56.150955
vt 0.625000 0.000000
vt 0.375000 0.250000
vt 0.375000 0.000000
vt 0.625000 0.250000
vt 0.375000 0.500000
vt 0.625000 0.500000
vt 0.375000 0.750000
vt 0.625000 0.750000
vt 0.375000 1.000000
vt 0.125000 0.750000
vt 0.125000 0.500000
vt 0.875000 0.500000
vt 0.625000 1.000000
vt 0.875000 0.750000
vn -0.9226 0.1471 -0.3565
vn 0.2175 -0.5650 -0.7959
vn 0.9226 -0.1471 0.3565
vn -0.2175 0.5650 0.7959
vn -0.3186 -0.8119 0.4893
vn 0.3185 0.8119 -0.4893
vn -0.3185 -0.8119 0.4893
vn 0.3186 0.8119 -0.4893
s off
f 74/127/66 75/128/66 73/129/66
f 76/130/67 79/131/67 75/128/67
f 80/132/68 77/133/68 79/131/68
f 78/134/69 73/135/69 77/133/69
f 79/131/70 73/136/70 75/137/70
f 76/138/71 78/134/71 80/132/71
f 74/127/66 76/130/66 75/128/66
f 76/130/67 80/132/67 79/131/67
f 80/132/68 78/134/68 77/133/68
f 78/134/69 74/139/69 73/135/69
f 79/131/72 77/133/72 73/136/72
f 76/138/73 74/140/73 78/134/73
o Cube.010
v -25.644966 47.822594 -41.052940
v -25.007864 49.446297 -42.031559
v -25.210051 46.692551 -42.644749
v -24.572948 48.316250 -43.623363
v -23.799717 47.528332 -40.339878
v -23.162615 49.152031 -41.318493
v -23.364801 46.398285 -41.931683
v -22.727699 48.021988 -42.910301
vt 0.625000 0.000000
vt 0.375000 0.250000
vt 0.375000 0.000000
vt 0.625000 0.250000
vt 0.375000 0.500000
vt 0.625000 0.500000
vt 0.375000 0.750000
vt 0.625000 0.750000
vt 0.375000 1.000000
vt 0.125000 0.750000
vt 0.125000 0.500000
vt 0.875000 0.500000
vt 0.625000 1.000000
vt 0.875000 0.750000
vn -0.9226 0.1471 -0.3565
vn 0.2175 -0.5650 -0.7959
vn 0.9226 -0.1471 0.3565
vn -0.2175 0.5650 0.7959
vn -0.3186 -0.8119 0.4893
vn 0.3186 0.8119 -0.4893
vn 0.3186 0.8118 -0.4893
s off
f 82/141/74 83/142/74 81/143/74
f 84/144/75 87/145/75 83/142/75
f 88/146/76 85/147/76 87/145/76
f 86/148/77 81/149/77 85/147/77
f 87/145/78 81/150/78 83/151/78
f 84/152/79 86/148/79 88/146/79
f 82/141/74 84/144/74 83/142/74
f 84/144/75 88/146/75 87/145/75
f 88/146/76 86/148/76 85/147/76
f 86/148/77 82/153/77 81/149/77
f 87/145/78 85/147/78 81/150/78
f 84/152/80 82/154/80 86/148/80
