# Blender v2.82 (sub 7) OBJ File: 'Level4.blend'
# www.blender.org
o Plane_Cube
v 250.028244 1.988940 -233.921478
v 250.028244 -1.988940 -233.921478
v 250.028244 1.988940 233.921478
v 250.028244 -1.988940 233.921478
v -250.028244 1.988940 -233.921478
v -250.028244 -1.988940 -233.921478
v -250.028244 1.988940 233.921478
v -250.028244 -1.988940 233.921478
vt 0.875000 0.500000
vt 0.625000 0.750000
vt 0.625000 0.500000
vt 0.375000 1.000000
vt 0.375000 0.750000
vt 0.625000 0.000000
vt 0.375000 0.250000
vt 0.375000 0.000000
vt 0.375000 0.500000
vt 0.125000 0.750000
vt 0.125000 0.500000
vt 0.625000 0.250000
vt 0.875000 0.750000
vt 0.625000 1.000000
vn 0.0000 1.0000 0.0000
vn 0.0000 0.0000 1.0000
vn -1.0000 0.0000 0.0000
vn 0.0000 -1.0000 0.0000
vn 1.0000 0.0000 0.0000
vn 0.0000 0.0000 -1.0000
s off
f 5/1/1 3/2/1 1/3/1
f 3/2/2 8/4/2 4/5/2
f 7/6/3 6/7/3 8/8/3
f 2/9/4 8/10/4 6/11/4
f 1/3/5 4/5/5 2/9/5
f 5/12/6 2/9/6 6/7/6
f 5/1/1 7/13/1 3/2/1
f 3/2/2 7/14/2 8/4/2
f 7/6/3 5/12/3 6/7/3
f 2/9/4 4/5/4 8/10/4
f 1/3/5 3/2/5 4/5/5
f 5/12/6 1/3/6 2/9/6
o Cube.001
v -59.248268 30.005404 -9.865606
v -57.839077 33.596832 -12.030189
v -58.286289 27.505882 -13.386487
v -56.877098 31.097311 -15.551069
v -55.166801 29.354528 -8.288397
v -53.757610 32.945957 -10.452979
v -54.204823 26.855007 -11.809278
v -52.795631 30.446436 -13.973860
vt 0.625000 0.000000
vt 0.375000 0.250000
vt 0.375000 0.000000
vt 0.625000 0.250000
vt 0.375000 0.500000
vt 0.625000 0.500000
vt 0.375000 0.750000
vt 0.625000 0.750000
vt 0.375000 1.000000
vt 0.125000 0.750000
vt 0.125000 0.500000
vt 0.875000 0.500000
vt 0.625000 1.000000
vt 0.875000 0.750000
vn -0.9226 0.1471 -0.3565
vn 0.2175 -0.5650 -0.7959
vn 0.9226 -0.1471 0.3565
vn -0.2175 0.5650 0.7959
vn -0.3186 -0.8119 0.4893
vn 0.3186 0.8119 -0.4893
s off
f 10/15/7 11/16/7 9/17/7
f 12/18/8 15/19/8 11/16/8
f 16/20/9 13/21/9 15/19/9
f 14/22/10 9/23/10 13/21/10
f 15/19/11 9/24/11 11/25/11
f 12/26/12 14/22/12 16/20/12
f 10/15/7 12/18/7 11/16/7
f 12/18/8 16/20/8 15/19/8
f 16/20/9 14/22/9 13/21/9
f 14/22/10 10/27/10 9/23/10
f 15/19/11 13/21/11 9/24/11
f 12/26/12 10/28/12 14/22/12
o Cube.002
v -49.910896 33.553848 20.606184
v -43.845364 32.699268 21.610260
v -48.875324 39.567387 19.468576
v -42.809792 38.712807 20.472654
v -49.094765 32.274689 14.587309
v -43.029232 31.420111 15.591387
v -48.059193 38.288227 13.449702
v -41.993660 37.433647 14.453780
vt 0.625000 0.000000
vt 0.375000 0.250000
vt 0.375000 0.000000
vt 0.625000 0.250000
vt 0.375000 0.500000
vt 0.625000 0.500000
vt 0.375000 0.750000
vt 0.625000 0.750000
vt 0.375000 1.000000
vt 0.125000 0.750000
vt 0.125000 0.500000
vt 0.875000 0.500000
vt 0.625000 1.000000
vt 0.875000 0.750000
vn -0.1315 0.2061 0.9697
vn 0.1668 0.9688 -0.1833
vn 0.1315 -0.2061 -0.9697
vn -0.1668 -0.9688 0.1833
vn -0.9772 0.1377 -0.1618
vn 0.9772 -0.1377 0.1618
s off
f 18/29/13 19/30/13 17/31/13
f 20/32/14 23/33/14 19/30/14
f 24/34/15 21/35/15 23/33/15
f 22/36/16 17/37/16 21/35/16
f 23/33/17 17/38/17 19/39/17
f 20/40/18 22/36/18 24/34/18
f 18/29/13 20/32/13 19/30/13
f 20/32/14 24/34/14 23/33/14
f 24/34/15 22/36/15 21/35/15
f 22/36/16 18/41/16 17/37/16
f 23/33/17 21/35/17 17/38/17
f 20/40/18 18/42/18 22/36/18
o Cube.003
v -11.736300 45.560192 35.138645
v -10.664440 48.291904 33.492218
v -11.004599 43.659004 32.460590
v -9.932738 46.390720 30.814163
v -8.631852 45.065121 36.338303
v -7.559992 47.796837 34.691875
v -7.900151 43.163937 33.660248
v -6.828290 45.895649 32.013821
vt 0.625000 0.000000
vt 0.375000 0.250000
vt 0.375000 0.000000
vt 0.625000 0.250000
vt 0.375000 0.500000
vt 0.625000 0.500000
vt 0.375000 0.750000
vt 0.625000 0.750000
vt 0.375000 1.000000
vt 0.125000 0.750000
vt 0.125000 0.500000
vt 0.875000 0.500000
vt 0.625000 1.000000
vt 0.875000 0.750000
vn -0.9226 0.1471 -0.3565
vn 0.2175 -0.5650 -0.7959
vn 0.9226 -0.1471 0.3565
vn -0.2175 0.5650 0.7959
vn -0.3186 -0.8119 0.4893
vn 0.3186 0.8119 -0.4893
s off
f 26/43/19 27/44/19 25/45/19
f 28/46/20 31/47/20 27/44/20
f 32/48/21 29/49/21 31/47/21
f 30/50/22 25/51/22 29/49/22
f 31/47/23 25/52/23 27/53/23
f 28/54/24 30/50/24 32/48/24
f 26/43/19 28/46/19 27/44/19
f 28/46/20 32/48/20 31/47/20
f 32/48/21 30/50/21 29/49/21
f 30/50/22 26/55/22 25/51/22
f 31/47/23 29/49/23 25/52/23
f 28/54/24 26/56/24 30/50/24
o Cube.004
v 14.823912 52.457184 47.378044
v 16.382998 56.430626 44.983219
v 15.888216 49.691795 43.482655
v 17.447302 53.665237 41.087830
v 19.339518 51.737076 49.123016
v 20.898603 55.710518 46.728191
v 20.403822 48.971687 45.227627
v 21.962908 52.945129 42.832802
vt 0.625000 0.000000
vt 0.375000 0.250000
vt 0.375000 0.000000
vt 0.625000 0.250000
vt 0.375000 0.500000
vt 0.625000 0.500000
vt 0.375000 0.750000
vt 0.625000 0.750000
vt 0.375000 1.000000
vt 0.125000 0.750000
vt 0.125000 0.500000
vt 0.875000 0.500000
vt 0.625000 1.000000
vt 0.875000 0.750000
vn -0.9226 0.1471 -0.3565
vn 0.2175 -0.5650 -0.7959
vn 0.9226 -0.1471 0.3565
vn -0.2175 0.5650 0.7959
vn -0.3186 -0.8119 0.4893
vn 0.3186 0.8119 -0.4893
s off
f 34/57/25 35/58/25 33/59/25
f 36/60/26 39/61/26 35/58/26
f 40/62/27 37/63/27 39/61/27
f 38/64/28 33/65/28 37/63/28
f 39/61/29 33/66/29 35/67/29
f 36/68/30 38/64/30 40/62/30
f 34/57/25 36/60/25 35/58/25
f 36/60/26 40/62/26 39/61/26
f 40/62/27 38/64/27 37/63/27
f 38/64/28 34/69/28 33/65/28
f 39/61/29 37/63/29 33/66/29
f 36/68/30 34/70/30 38/64/30
o Cube.005
v 48.056553 61.000366 37.377701
v 49.200489 63.915771 35.620564
v 48.837456 58.971336 34.519566
v 49.981396 61.886742 32.762424
v 51.369755 60.472008 38.658031
v 52.513695 63.387413 36.900890
v 52.150661 58.442978 35.799892
v 53.294598 61.358383 34.042755
vt 0.625000 0.000000
vt 0.375000 0.250000
vt 0.375000 0.000000
vt 0.625000 0.250000
vt 0.375000 0.500000
vt 0.625000 0.500000
vt 0.375000 0.750000
vt 0.625000 0.750000
vt 0.375000 1.000000
vt 0.125000 0.750000
vt 0.125000 0.500000
vt 0.875000 0.500000
vt 0.625000 1.000000
vt 0.875000 0.750000
vn -0.9226 0.1471 -0.3565
vn 0.2175 -0.5650 -0.7959
vn 0.9226 -0.1471 0.3565
vn -0.2175 0.5650 0.7959
vn -0.3186 -0.8119 0.4893
vn 0.3186 0.8118 -0.4893
vn 0.3186 0.8119 -0.4893
s off
f 42/71/31 43/72/31 41/73/31
f 44/74/32 47/75/32 43/72/32
f 48/76/33 45/77/33 47/75/33
f 46/78/34 41/79/34 45/77/34
f 47/75/35 41/80/35 43/81/35
f 44/82/36 46/78/36 48/76/36
f 42/71/31 44/74/31 43/72/31
f 44/74/32 48/76/32 47/75/32
f 48/76/33 46/78/33 45/77/33
f 46/78/34 42/83/34 41/79/34
f 47/75/35 45/77/35 41/80/35
f 44/82/37 42/84/37 46/78/37
o Cube.006
v 62.355873 45.468357 -0.948066
v 64.014580 49.695702 -3.495917
v 63.488186 42.526264 -5.092367
v 65.146896 46.753605 -7.640219
v 67.160019 44.702236 0.908411
v 68.818733 48.929577 -1.639441
v 68.292336 41.760139 -3.235891
v 69.951042 45.987484 -5.783742
vt 0.625000 0.000000
vt 0.375000 0.250000
vt 0.375000 0.000000
vt 0.625000 0.250000
vt 0.375000 0.500000
vt 0.625000 0.500000
vt 0.375000 0.750000
vt 0.625000 0.750000
vt 0.375000 1.000000
vt 0.125000 0.750000
vt 0.125000 0.500000
vt 0.875000 0.500000
vt 0.625000 1.000000
vt 0.875000 0.750000
vn -0.9226 0.1471 -0.3565
vn 0.2175 -0.5650 -0.7959
vn 0.9226 -0.1471 0.3565
vn -0.2175 0.5650 0.7959
vn -0.3186 -0.8119 0.4893
vn 0.3186 0.8118 -0.4893
vn 0.3186 0.8119 -0.4893
s off
f 50/85/38 51/86/38 49/87/38
f 52/88/39 55/89/39 51/86/39
f 56/90/40 53/91/40 55/89/40
f 54/92/41 49/93/41 53/91/41
f 55/89/42 49/94/42 51/95/42
f 52/96/43 54/92/43 56/90/43
f 50/85/38 52/88/38 51/86/38
f 52/88/39 56/90/39 55/89/39
f 56/90/40 54/92/40 53/91/40
f 54/92/41 50/97/41 49/93/41
f 55/89/42 53/91/42 49/94/42
f 52/96/44 50/98/44 54/92/44
o Cube.007
v 53.775131 45.511761 -36.384491
v 55.156490 49.032257 -38.506321
v 54.718109 43.061607 -39.835835
v 56.099472 46.582104 -41.957664
v 57.775986 44.873737 -34.838432
v 59.157349 48.394234 -36.960262
v 58.718967 42.423584 -38.289776
v 60.100327 45.944080 -40.411606
vt 0.625000 0.000000
vt 0.375000 0.250000
vt 0.375000 0.000000
vt 0.625000 0.250000
vt 0.375000 0.500000
vt 0.625000 0.500000
vt 0.375000 0.750000
vt 0.625000 0.750000
vt 0.375000 1.000000
vt 0.125000 0.750000
vt 0.125000 0.500000
vt 0.875000 0.500000
vt 0.625000 1.000000
vt 0.875000 0.750000
vn -0.9226 0.1471 -0.3565
vn 0.2175 -0.5650 -0.7959
vn 0.9226 -0.1471 0.3565
vn -0.2175 0.5650 0.7959
vn -0.3186 -0.8119 0.4893
vn 0.3186 0.8119 -0.4893
s off
f 58/99/45 59/100/45 57/101/45
f 60/102/46 63/103/46 59/100/46
f 64/104/47 61/105/47 63/103/47
f 62/106/48 57/107/48 61/105/48
f 63/103/49 57/108/49 59/109/49
f 60/110/50 62/106/50 64/104/50
f 58/99/45 60/102/45 59/100/45
f 60/102/46 64/104/46 63/103/46
f 64/104/47 62/106/47 61/105/47
f 62/106/48 58/111/48 57/107/48
f 63/103/49 61/105/49 57/108/49
f 60/110/50 58/112/50 62/106/50
o Cube.008
v 31.741009 49.532833 -47.937809
v 33.318245 53.552528 -50.360512
v 32.817703 46.735249 -51.878544
v 34.394936 50.754948 -54.301247
v 36.309181 48.804340 -46.172523
v 37.886414 52.824039 -48.595226
v 37.385872 46.006760 -50.113258
v 38.963108 50.026455 -52.535961
vt 0.625000 0.000000
vt 0.375000 0.250000
vt 0.375000 0.000000
vt 0.625000 0.250000
vt 0.375000 0.500000
vt 0.625000 0.500000
vt 0.375000 0.750000
vt 0.625000 0.750000
vt 0.375000 1.000000
vt 0.125000 0.750000
vt 0.125000 0.500000
vt 0.875000 0.500000
vt 0.625000 1.000000
vt 0.875000 0.750000
vn -0.9226 0.1471 -0.3565
vn 0.2175 -0.5650 -0.7959
vn 0.9226 -0.1471 0.3565
vn -0.2175 0.5650 0.7959
vn -0.3186 -0.8119 0.4893
vn 0.3186 0.8119 -0.4893
s off
f 66/113/51 67/114/51 65/115/51
f 68/116/52 71/117/52 67/114/52
f 72/118/53 69/119/53 71/117/53
f 70/120/54 65/121/54 69/119/54
f 71/117/55 65/122/55 67/123/55
f 68/124/56 70/120/56 72/118/56
f 66/113/51 68/116/51 67/114/51
f 68/116/52 72/118/52 71/117/52
f 72/118/53 70/120/53 69/119/53
f 70/120/54 66/125/54 65/121/54
f 71/117/55 69/119/55 65/122/55
f 68/124/56 66/126/56 70/120/56
o Cube.009
v 4.018049 45.379429 -51.976051
v 6.245055 51.055115 -55.396832
v 5.538306 41.429333 -57.540249
v 7.765312 47.105019 -60.961029
v 10.468163 44.350822 -49.483521
v 12.695169 50.026508 -52.904301
v 11.988420 40.400726 -55.047718
v 14.215425 46.076412 -58.468498
vt 0.625000 0.000000
vt 0.375000 0.250000
vt 0.375000 0.000000
vt 0.625000 0.250000
vt 0.375000 0.500000
vt 0.625000 0.500000
vt 0.375000 0.750000
vt 0.625000 0.750000
vt 0.375000 1.000000
vt 0.125000 0.750000
vt 0.125000 0.500000
vt 0.875000 0.500000
vt 0.625000 1.000000
vt 0.875000 0.750000
vn -0.9226 0.1471 -0.3565
vn 0.2175 -0.5650 -0.7959
vn 0.9226 -0.1471 0.3565
vn -0.2175 0.5650 0.7959
vn -0.3186 -0.8119 0.4893
vn 0.3186 0.8119 -0.4893
s off
f 74/127/57 75/128/57 73/129/57
f 76/130/58 79/131/58 75/128/58
f 80/132/59 77/133/59 79/131/59
f 78/134/60 73/135/60 77/133/60
f 79/131/61 73/136/61 75/137/61
f 76/138/62 78/134/62 80/132/62
f 74/127/57 76/130/57 75/128/57
f 76/130/58 80/132/58 79/131/58
f 80/132/59 78/134/59 77/133/59
f 78/134/60 74/139/60 73/135/60
f 79/131/61 77/133/61 73/136/61
f 76/138/62 74/140/62 78/134/62
o Cube.010
v -27.817604 47.674095 -39.669670
v -26.231537 51.716305 -42.105942
v -26.734882 44.860847 -43.632473
v -25.148813 48.903057 -46.068745
v -23.223852 46.941525 -37.894497
v -21.637783 50.983734 -40.330769
v -22.141129 44.128277 -41.857300
v -20.555061 48.170486 -44.293571
vt 0.625000 0.000000
vt 0.375000 0.250000
vt 0.375000 0.000000
vt 0.625000 0.250000
vt 0.375000 0.500000
vt 0.625000 0.500000
vt 0.375000 0.750000
vt 0.625000 0.750000
vt 0.375000 1.000000
vt 0.125000 0.750000
vt 0.125000 0.500000
vt 0.875000 0.500000
vt 0.625000 1.000000
vt 0.875000 0.750000
vn -0.9226 0.1471 -0.3565
vn 0.2175 -0.5650 -0.7959
vn 0.9226 -0.1471 0.3565
vn -0.2175 0.5650 0.7959
vn -0.3186 -0.8119 0.4893
vn 0.3186 0.8119 -0.4893
s off
f 82/141/63 83/142/63 81/143/63
f 84/144/64 87/145/64 83/142/64
f 88/146/65 85/147/65 87/145/65
f 86/148/66 81/149/66 85/147/66
f 87/145/67 81/150/67 83/151/67
f 84/152/68 86/148/68 88/146/68
f 82/141/63 84/144/63 83/142/63
f 84/144/64 88/146/64 87/145/64
f 88/146/65 86/148/65 85/147/65
f 86/148/66 82/153/66 81/149/66
f 87/145/67 85/147/67 81/150/67
f 84/152/68 82/154/68 86/148/68
o Plane.001_Cube.011
v 250.028244 233.904068 226.605072
v 250.028244 233.811111 222.628281
v 250.028244 -233.811111 237.538406
v 250.028244 -233.904068 233.561615
v -250.028244 233.904068 226.605072
v -250.028244 233.811111 222.628281
v -250.028244 -233.811111 237.538406
v -250.028244 -233.904068 233.561615
vt 0.875000 0.500000
vt 0.625000 0.750000
vt 0.625000 0.500000
vt 0.375000 1.000000
vt 0.375000 0.750000
vt 0.625000 0.000000
vt 0.375000 0.250000
vt 0.375000 0.000000
vt 0.375000 0.500000
vt 0.125000 0.750000
vt 0.125000 0.500000
vt 0.625000 0.250000
vt 0.875000 0.750000
vt 0.625000 1.000000
vn 0.0000 0.0234 0.9997
vn 0.0000 -0.9997 0.0234
vn -1.0000 -0.0000 0.0000
vn 0.0000 -0.0234 -0.9997
vn 1.0000 -0.0000 0.0000
vn 0.0000 0.9997 -0.0234
s off
f 93/155/69 91/156/69 89/157/69
f 91/156/70 96/158/70 92/159/70
f 95/160/71 94/161/71 96/162/71
f 90/163/72 96/164/72 94/165/72
f 89/157/73 92/159/73 90/163/73
f 93/166/74 90/163/74 94/161/74
f 93/155/69 95/167/69 91/156/69
f 91/156/70 95/168/70 96/158/70
f 95/160/71 93/166/71 94/161/71
f 90/163/72 92/159/72 96/164/72
f 89/157/73 91/156/73 92/159/73
f 93/166/74 89/157/74 90/163/74
o Plane.002_Cube.012
v 250.028244 233.904068 -235.113678
v 250.028244 233.811111 -239.090469
v 250.028244 -233.811111 -224.180344
v 250.028244 -233.904068 -228.157135
v -250.028244 233.904068 -235.113678
v -250.028244 233.811111 -239.090469
v -250.028244 -233.811111 -224.180344
v -250.028244 -233.904068 -228.157135
vt 0.875000 0.500000
vt 0.625000 0.750000
vt 0.625000 0.500000
vt 0.375000 1.000000
vt 0.375000 0.750000
vt 0.625000 0.000000
vt 0.375000 0.250000
vt 0.375000 0.000000
vt 0.375000 0.500000
vt 0.125000 0.750000
vt 0.125000 0.500000
vt 0.625000 0.250000
vt 0.875000 0.750000
vt 0.625000 1.000000
vn 0.0000 0.0234 0.9997
vn 0.0000 -0.9997 0.0234
vn -1.0000 -0.0000 0.0000
vn 0.0000 -0.0234 -0.9997
vn 1.0000 -0.0000 0.0000
vn 0.0000 0.9997 -0.0234
s off
f 101/169/75 99/170/75 97/171/75
f 99/170/76 104/172/76 100/173/76
f 103/174/77 102/175/77 104/176/77
f 98/177/78 104/178/78 102/179/78
f 97/171/79 100/173/79 98/177/79
f 101/180/80 98/177/80 102/175/80
f 101/169/75 103/181/75 99/170/75
f 99/170/76 103/182/76 104/172/76
f 103/174/77 101/180/77 102/175/77
f 98/177/78 100/173/78 104/178/78
f 97/171/79 99/170/79 100/173/79
f 101/180/80 97/171/80 98/177/80
o Plane.003_Cube.013
v 250.028244 227.240448 -233.921478
v 250.028244 223.262573 -233.921478
v 250.028244 227.240448 233.921478
v 250.028244 223.262573 233.921478
v -250.028244 227.240448 -233.921478
v -250.028244 223.262573 -233.921478
v -250.028244 227.240448 233.921478
v -250.028244 223.262573 233.921478
vt 0.875000 0.500000
vt 0.625000 0.750000
vt 0.625000 0.500000
vt 0.375000 1.000000
vt 0.375000 0.750000
vt 0.625000 0.000000
vt 0.375000 0.250000
vt 0.375000 0.000000
vt 0.375000 0.500000
vt 0.125000 0.750000
vt 0.125000 0.500000
vt 0.625000 0.250000
vt 0.875000 0.750000
vt 0.625000 1.000000
vn 0.0000 1.0000 0.0000
vn 0.0000 0.0000 1.0000
vn -1.0000 0.0000 0.0000
vn 0.0000 -1.0000 0.0000
vn 1.0000 0.0000 0.0000
vn 0.0000 0.0000 -1.0000
s off
f 109/183/81 107/184/81 105/185/81
f 107/184/82 112/186/82 108/187/82
f 111/188/83 110/189/83 112/190/83
f 106/191/84 112/192/84 110/193/84
f 105/185/85 108/187/85 106/191/85
f 109/194/86 106/191/86 110/189/86
f 109/183/81 111/195/81 107/184/81
f 107/184/82 111/196/82 112/186/82
f 111/188/83 109/194/83 110/189/83
f 106/191/84 108/187/84 112/192/84
f 105/185/85 107/184/85 108/187/85
f 109/194/86 105/185/86 106/191/86
o Plane.004_Cube.014
v -230.581100 233.904068 265.523773
v -226.605545 233.811111 265.424652
v -241.511032 -233.811111 265.796326
v -237.535477 -233.904068 265.697205
v -243.046432 233.904068 -234.377350
v -239.070877 233.811111 -234.476471
v -253.976364 -233.811111 -234.104797
v -250.000809 -233.904068 -234.203918
vt 0.875000 0.500000
vt 0.625000 0.750000
vt 0.625000 0.500000
vt 0.375000 1.000000
vt 0.375000 0.750000
vt 0.625000 0.000000
vt 0.375000 0.250000
vt 0.375000 0.000000
vt 0.375000 0.500000
vt 0.125000 0.750000
vt 0.125000 0.500000
vt 0.625000 0.250000
vt 0.875000 0.750000
vt 0.625000 1.000000
vn -0.9994 0.0234 0.0249
vn -0.0234 -0.9997 0.0006
vn -0.0249 -0.0000 -0.9997
vn 0.9994 -0.0234 -0.0249
vn 0.0249 0.0000 0.9997
vn 0.0234 0.9997 -0.0006
s off
f 117/197/87 115/198/87 113/199/87
f 115/198/88 120/200/88 116/201/88
f 119/202/89 118/203/89 120/204/89
f 114/205/90 120/206/90 118/207/90
f 113/199/91 116/201/91 114/205/91
f 117/208/92 114/205/92 118/203/92
f 117/197/87 119/209/87 115/198/87
f 115/198/88 119/210/88 120/200/88
f 119/202/89 117/208/89 118/203/89
f 114/205/90 116/201/90 120/206/90
f 113/199/91 115/198/91 116/201/91
f 117/208/92 113/199/92 114/205/92
o Plane.005_Cube.015
v 244.396820 233.904068 265.523773
v 248.372375 233.811111 265.424652
v 233.466888 -233.811111 265.796326
v 237.442444 -233.904068 265.697205
v 231.931488 233.904068 -234.377350
v 235.907043 233.811111 -234.476471
v 221.001556 -233.811111 -234.104797
v 224.977112 -233.904068 -234.203918
vt 0.875000 0.500000
vt 0.625000 0.750000
vt 0.625000 0.500000
vt 0.375000 1.000000
vt 0.375000 0.750000
vt 0.625000 0.000000
vt 0.375000 0.250000
vt 0.375000 0.000000
vt 0.375000 0.500000
vt 0.125000 0.750000
vt 0.125000 0.500000
vt 0.625000 0.250000
vt 0.875000 0.750000
vt 0.625000 1.000000
vn -0.9994 0.0234 0.0249
vn -0.0234 -0.9997 0.0006
vn -0.0249 -0.0000 -0.9997
vn 0.9994 -0.0234 -0.0249
vn 0.0249 0.0000 0.9997
vn 0.0234 0.9997 -0.0006
s off
f 125/211/93 123/212/93 121/213/93
f 123/212/94 128/214/94 124/215/94
f 127/216/95 126/217/95 128/218/95
f 122/219/96 128/220/96 126/221/96
f 121/213/97 124/215/97 122/219/97
f 125/222/98 122/219/98 126/217/98
f 125/211/93 127/223/93 123/212/93
f 123/212/94 127/224/94 128/214/94
f 127/216/95 125/222/95 126/217/95
f 122/219/96 124/215/96 128/220/96
f 121/213/97 123/212/97 124/215/97
f 125/222/98 121/213/98 122/219/98
