# Blender v2.83.1 OBJ File: 'Scythe2.blend'
# www.blender.org
o CollisionMesh
v -3.358799 -1.030605 -3.178275
v -3.559696 1.000000 -2.970267
v -3.884501 -1.060524 -9.249509
v -3.912063 1.000000 -9.657312
v -4.305757 0.000000 -2.442675
v -5.147237 0.000000 -10.174689
v 3.358799 -1.030605 -3.178275
v 3.559696 1.000000 -2.970267
v 3.884501 -1.060524 -9.249509
v 3.912063 1.000000 -9.657312
v 0.000000 -1.208396 0.000000
v 0.000000 1.202828 0.000000
v 0.000000 -1.208396 -12.714418
v 0.000000 1.202828 -12.714418
v 4.305757 0.000000 -2.442675
v 5.147237 0.000000 -10.174689
v 0.000000 0.000000 -13.709523
v 0.000000 0.000000 0.000000
vt 0.500000 0.000000
vt 0.625000 0.000000
vt 0.625000 0.250000
vt 0.500000 0.250000
vt 0.625000 0.500000
vt 0.500000 0.500000
vt 0.500000 0.750000
vt 0.625000 0.750000
vt 0.625000 1.000000
vt 0.500000 1.000000
vt 0.125000 0.500000
vt 0.375000 0.500000
vt 0.375000 0.750000
vt 0.125000 0.750000
vt 0.875000 0.500000
vt 0.875000 0.750000
vt 0.375000 1.000000
vt 0.375000 0.250000
vt 0.375000 0.000000
vt 0.500000 0.000000
vt 0.500000 0.250000
vt 0.625000 0.250000
vt 0.625000 0.000000
vt 0.500000 1.000000
vt 0.625000 1.000000
vt 0.125000 0.500000
vt 0.125000 0.750000
vt 0.875000 0.750000
vt 0.875000 0.500000
vt 0.375000 1.000000
vt 0.375000 0.250000
vt 0.375000 0.000000
vn -0.7091 0.7027 0.0587
vn -0.4501 0.6631 -0.5981
vn -0.5344 0.3637 0.7629
vn -0.0448 -0.9990 0.0028
vn -0.0542 0.9985 0.0010
vn -0.5323 -0.4589 0.7114
vn -0.4385 -0.7102 -0.5508
vn -0.6888 -0.7216 0.0698
vn 0.7091 0.7027 0.0587
vn 0.4501 0.6631 -0.5981
vn -1.0000 0.0000 0.0000
vn 0.5344 0.3637 0.7629
vn 0.0448 -0.9990 0.0028
vn 0.0542 0.9985 0.0010
vn 0.5323 -0.4589 0.7114
vn 0.4385 -0.7102 -0.5508
vn 0.6888 -0.7216 0.0698
s off
f 5/1/1 2/2/1 4/3/1 6/4/1
f 6/4/2 4/3/2 14/5/2 17/6/2
f 18/7/3 12/8/3 2/9/3 5/10/3
f 3/11/4 13/12/4 11/13/4 1/14/4
f 14/5/5 4/15/5 2/16/5 12/8/5
f 11/13/6 18/7/6 5/10/6 1/17/6
f 3/18/7 6/4/7 17/6/7 13/12/7
f 1/19/8 5/1/8 6/4/8 3/18/8
f 15/20/9 16/21/9 10/22/9 8/23/9
f 16/21/10 17/6/10 14/5/10 10/22/10
f 17/6/11 18/7/11 12/8/11 14/5/11
f 18/7/12 15/24/12 8/25/12 12/8/12
f 9/26/13 7/27/13 11/13/13 13/12/13
f 14/5/14 12/8/14 8/28/14 10/29/14
f 11/13/15 7/30/15 15/24/15 18/7/15
f 13/12/11 11/13/11 18/7/11 17/6/11
f 9/31/16 13/12/16 17/6/16 16/21/16
f 7/32/17 9/31/17 16/21/17 15/20/17
